<?xml version="1.0" encoding="UTF-8"?>
<svg xmlns="http://www.w3.org/2000/svg" xmlns:xlink="http://www.w3.org/1999/xlink"
     width="500" height="800" viewBox="-250.0 -400.0 500 800">
<defs>
</defs>
<path d="M0,-92.0 L10,-89.0 L10,-89.0 L20,-86.0 L20,-86.0 L30,-83.5 L30,-83.5 L40,-84.5 L40,-84.5 L50,-90.0 L50,-90.0 L60,-98.5 L60,-98.5 L70,-108.0 L70,-108.0 L80,-122.5 L80,-122.5 L90,-135.5 L90,-135.5 L100,-144.0 L100,-144.0 L110,-148.5 L110,-148.5 L120,-152.0 L120,-152.0 L130,-158.0 L130,-158.0 L140,-159.5 L140,-159.5 L150,-157.5 L150,-157.5 L160,-163.5 L160,-163.5 L170,-157.0 L170,-157.0 L180,-152.5 L180,-152.5 L190,-133.0 L190,-133.0 L200,-119.5 L200,-119.5 L210,-111.0 L210,-111.0 L220,-104.0 L220,-104.0 L230,-101.0 L230,-101.0 L240,-99.0" fill="white" stroke-width="4" stroke="black" />
<path d="M30,-83.5 L30,-93.5" fill="white" stroke="black" />
<text x="30" y="-103.5" font-size="14" text-anchor="middle" font-family="DejaVu">16.7</text>
<path d="M160,-163.5 L160,-173.5" fill="white" stroke="black" />
<text x="160" y="-183.5" font-size="14" text-anchor="middle" font-family="DejaVu">32.7</text>
<path d="M0,-92.0 L0,-83.5" fill="white" stroke="black" />
<path d="M120,-148.5 L120,-83.5" fill="white" stroke="black" />
<text x="0" y="-63.5" font-size="20" text-anchor="middle" font-family="DejaVu">00:00</text>
<text x="120" y="-63.5" font-size="20" text-anchor="middle" font-family="DejaVu">12:00</text>
<circle cx="200" cy="-119.5" r="10" fill="grey" stroke="black" />
<text x="0" y="0" font-size="28" font-family="DejaVu">date=2024-07-20</text>
</svg>