<?xml version="1.0" encoding="UTF-8"?>
<svg xmlns="http://www.w3.org/2000/svg" xmlns:xlink="http://www.w3.org/1999/xlink"
     width="500" height="800" viewBox="-250.0 -400.0 500 800">
<defs>
</defs>
<path d="M0,-78.0 L10,-76.0 L10,-76.0 L20,-73.0 L20,-73.0 L30,-72.5 L30,-72.5 L40,-71.0 L40,-71.0 L50,-73.5 L50,-73.5 L60,-89.0 L60,-89.0 L70,-98.0 L70,-98.0 L80,-112.0 L80,-112.0 L90,-122.0 L90,-122.0 L100,-129.0 L100,-129.0 L110,-134.0 L110,-134.0 L120,-139.0 L120,-139.0 L130,-144.0 L130,-144.0 L140,-140.5 L140,-140.5 L150,-143.0 L150,-143.0 L160,-141.5 L160,-141.5 L170,-136.0 L170,-136.0 L180,-127.0 L180,-127.0 L190,-117.0 L190,-117.0 L200,-108.0 L200,-108.0 L210,-101.5 L210,-101.5 L220,-96.5 L220,-96.5 L230,-94.5 L230,-94.5 L240,-91.5" stroke-width="4" fill="none" stroke="black" />
<path d="M40,-71.0 L40,-81.0" fill="white" stroke="black" />
<text x="40" y="-91.0" font-size="14" text-anchor="middle" font-family="DejaVu">14.2</text>
<path d="M130,-144.0 L130,-154.0" fill="white" stroke="black" />
<text x="130" y="-164.0" font-size="14" text-anchor="middle" font-family="DejaVu">28.8</text>
<path d="M0,-78.0 L0,-71.0" fill="white" stroke="black" />
<path d="M120,-134.0 L120,-71.0" fill="white" stroke="black" />
<text x="0" y="-51.0" font-size="20" text-anchor="middle" font-family="DejaVu">00:00</text>
<text x="120" y="-51.0" font-size="20" text-anchor="middle" font-family="DejaVu">12:00</text>
<circle cx="180" cy="-127.0" r="10" fill="grey" stroke="black" />
<text x="0" y="0" font-size="28" font-family="DejaVu">date=2024-07-26</text>
</svg>